<?xml version="1.0" encoding="UTF-8"?>
<svg id="Layer_1" data-name="Layer 1" xmlns="http://www.w3.org/2000/svg" version="1.1" viewBox="0 0 640 640">
  <defs>
    <style>
      .cls-1 {
        stroke-width: 0px;
      }

      .cls-1, .cls-2 {
        fill: #858585;
      }

      .cls-2 {
        stroke: #858585;
        stroke-miterlimit: 10;
        stroke-width: 11px;
      }
    </style>
  </defs>
  <path class="cls-2" d="M320,64c-70.7,0-128,57.3-128,128s57.3,128,128,128,128-57.3,128-128-57.3-128-128-128ZM320,305.3c-62.6,0-113.3-50.7-113.3-113.3s50.7-113.3,113.3-113.3,113.3,50.7,113.3,113.3-50.7,113.3-113.3,113.3Z"/>
  <path class="cls-2" d="M544.9,612.3l-15.5,1s1.9-21.5,2.8-40.7c.5-11.3.7-21.9,0-26.8,0,0,0,0,0,0,0-1,0-1.9-.1-2.8-5.6-91.9-78.3-164.6-167.3-164.6h-89.7c-88.9,0-161.7,72.7-167.3,164.6,0,.9-.1,1.9-.2,2.8,0,0,0,0,0,0-.7,4.9-.5,15.4,0,26.8.9,19.2,2.8,40.7,2.8,40.7l-15.5-1c-.3-1,1-60.3,1-60.3v-8c0-97.2,78.8-176,176-176h95.9c97.2,0,176,78.8,176,176v8s1.4,59.2,1,60.3Z"/>
  <path class="cls-1" d="M107.7,545.8c0-1,0-1.9.2-2.8,0,.7,0,1.6-.2,2.8Z"/>
</svg>